<mxfile host="app.diagrams.net" modified="2021-09-16T16:21:01.899Z" agent="5.0 (Windows NT 10.0; Win64; x64) AppleWebKit/537.36 (KHTML, like Gecko) Chrome/92.0.4515.159 Safari/537.36" etag="K5m1CIHZzVp8SUIUHv1I" version="15.2.5" type="github">
  <diagram id="8zAXQN8fb-5dMSVveiVP" name="Page-1">
    <mxGraphModel dx="782" dy="436" grid="1" gridSize="10" guides="1" tooltips="1" connect="1" arrows="1" fold="1" page="1" pageScale="1" pageWidth="850" pageHeight="1100" math="0" shadow="0">
      <root>
        <mxCell id="0" />
        <mxCell id="1" parent="0" />
        <mxCell id="ntdUD1XajzB-hL5Z4IIZ-5" style="edgeStyle=orthogonalEdgeStyle;rounded=0;orthogonalLoop=1;jettySize=auto;html=1;" edge="1" parent="1" source="ntdUD1XajzB-hL5Z4IIZ-1" target="ntdUD1XajzB-hL5Z4IIZ-6">
          <mxGeometry relative="1" as="geometry">
            <mxPoint x="400" y="200" as="targetPoint" />
          </mxGeometry>
        </mxCell>
        <mxCell id="ntdUD1XajzB-hL5Z4IIZ-1" value="" style="ellipse;whiteSpace=wrap;html=1;" vertex="1" parent="1">
          <mxGeometry x="340" y="50" width="120" height="80" as="geometry" />
        </mxCell>
        <mxCell id="ntdUD1XajzB-hL5Z4IIZ-2" value="Start" style="text;html=1;strokeColor=none;fillColor=none;align=center;verticalAlign=middle;whiteSpace=wrap;rounded=0;" vertex="1" parent="1">
          <mxGeometry x="380" y="80" width="40" height="20" as="geometry" />
        </mxCell>
        <mxCell id="ntdUD1XajzB-hL5Z4IIZ-12" style="edgeStyle=orthogonalEdgeStyle;rounded=0;orthogonalLoop=1;jettySize=auto;html=1;entryX=0.5;entryY=0;entryDx=0;entryDy=0;startArrow=none;" edge="1" parent="1" source="ntdUD1XajzB-hL5Z4IIZ-17" target="ntdUD1XajzB-hL5Z4IIZ-10">
          <mxGeometry relative="1" as="geometry" />
        </mxCell>
        <mxCell id="ntdUD1XajzB-hL5Z4IIZ-20" style="edgeStyle=orthogonalEdgeStyle;rounded=0;orthogonalLoop=1;jettySize=auto;html=1;" edge="1" parent="1" source="ntdUD1XajzB-hL5Z4IIZ-6" target="ntdUD1XajzB-hL5Z4IIZ-17">
          <mxGeometry relative="1" as="geometry" />
        </mxCell>
        <mxCell id="ntdUD1XajzB-hL5Z4IIZ-6" value="" style="rhombus;whiteSpace=wrap;html=1;" vertex="1" parent="1">
          <mxGeometry x="330" y="180" width="140" height="80" as="geometry" />
        </mxCell>
        <mxCell id="ntdUD1XajzB-hL5Z4IIZ-7" value="if lightSensor &amp;gt; 200" style="text;html=1;strokeColor=none;fillColor=none;align=center;verticalAlign=middle;whiteSpace=wrap;rounded=0;" vertex="1" parent="1">
          <mxGeometry x="345" y="210" width="120" height="20" as="geometry" />
        </mxCell>
        <mxCell id="ntdUD1XajzB-hL5Z4IIZ-37" style="edgeStyle=orthogonalEdgeStyle;rounded=0;orthogonalLoop=1;jettySize=auto;html=1;" edge="1" parent="1" source="ntdUD1XajzB-hL5Z4IIZ-10">
          <mxGeometry relative="1" as="geometry">
            <mxPoint x="400" y="520" as="targetPoint" />
          </mxGeometry>
        </mxCell>
        <mxCell id="ntdUD1XajzB-hL5Z4IIZ-10" value="" style="rounded=1;whiteSpace=wrap;html=1;" vertex="1" parent="1">
          <mxGeometry x="340" y="420" width="120" height="60" as="geometry" />
        </mxCell>
        <mxCell id="ntdUD1XajzB-hL5Z4IIZ-11" value="" style="rounded=1;whiteSpace=wrap;html=1;" vertex="1" parent="1">
          <mxGeometry x="340" y="620" width="120" height="60" as="geometry" />
        </mxCell>
        <mxCell id="ntdUD1XajzB-hL5Z4IIZ-28" style="edgeStyle=orthogonalEdgeStyle;rounded=0;orthogonalLoop=1;jettySize=auto;html=1;" edge="1" parent="1" source="ntdUD1XajzB-hL5Z4IIZ-17" target="ntdUD1XajzB-hL5Z4IIZ-27">
          <mxGeometry relative="1" as="geometry" />
        </mxCell>
        <mxCell id="ntdUD1XajzB-hL5Z4IIZ-17" value="" style="rhombus;whiteSpace=wrap;html=1;" vertex="1" parent="1">
          <mxGeometry x="360" y="290" width="80" height="80" as="geometry" />
        </mxCell>
        <mxCell id="ntdUD1XajzB-hL5Z4IIZ-27" value="" style="ellipse;whiteSpace=wrap;html=1;" vertex="1" parent="1">
          <mxGeometry x="60" y="290" width="120" height="80" as="geometry" />
        </mxCell>
        <mxCell id="ntdUD1XajzB-hL5Z4IIZ-29" value="Stop" style="text;html=1;strokeColor=none;fillColor=none;align=center;verticalAlign=middle;whiteSpace=wrap;rounded=0;" vertex="1" parent="1">
          <mxGeometry x="100" y="320" width="40" height="20" as="geometry" />
        </mxCell>
        <mxCell id="ntdUD1XajzB-hL5Z4IIZ-30" value="" style="endArrow=none;html=1;entryX=1;entryY=0.5;entryDx=0;entryDy=0;" edge="1" parent="1" target="ntdUD1XajzB-hL5Z4IIZ-11">
          <mxGeometry width="50" height="50" relative="1" as="geometry">
            <mxPoint x="540" y="650" as="sourcePoint" />
            <mxPoint x="440" y="470" as="targetPoint" />
          </mxGeometry>
        </mxCell>
        <mxCell id="ntdUD1XajzB-hL5Z4IIZ-31" value="" style="endArrow=none;html=1;" edge="1" parent="1">
          <mxGeometry width="50" height="50" relative="1" as="geometry">
            <mxPoint x="540" y="330" as="sourcePoint" />
            <mxPoint x="540" y="650" as="targetPoint" />
          </mxGeometry>
        </mxCell>
        <mxCell id="ntdUD1XajzB-hL5Z4IIZ-32" value="" style="endArrow=classic;html=1;entryX=1;entryY=0.5;entryDx=0;entryDy=0;" edge="1" parent="1" target="ntdUD1XajzB-hL5Z4IIZ-17">
          <mxGeometry width="50" height="50" relative="1" as="geometry">
            <mxPoint x="540" y="330" as="sourcePoint" />
            <mxPoint x="440" y="470" as="targetPoint" />
          </mxGeometry>
        </mxCell>
        <mxCell id="ntdUD1XajzB-hL5Z4IIZ-34" value="drive()" style="text;html=1;strokeColor=none;fillColor=none;align=center;verticalAlign=middle;whiteSpace=wrap;rounded=0;" vertex="1" parent="1">
          <mxGeometry x="385" y="440" width="40" height="20" as="geometry" />
        </mxCell>
        <mxCell id="ntdUD1XajzB-hL5Z4IIZ-35" value="turn()" style="text;html=1;strokeColor=none;fillColor=none;align=center;verticalAlign=middle;whiteSpace=wrap;rounded=0;" vertex="1" parent="1">
          <mxGeometry x="385" y="640" width="40" height="20" as="geometry" />
        </mxCell>
        <mxCell id="ntdUD1XajzB-hL5Z4IIZ-38" value="" style="endArrow=classic;html=1;exitX=0.5;exitY=1;exitDx=0;exitDy=0;entryX=0.5;entryY=0;entryDx=0;entryDy=0;" edge="1" parent="1" target="ntdUD1XajzB-hL5Z4IIZ-11">
          <mxGeometry width="50" height="50" relative="1" as="geometry">
            <mxPoint x="400" y="600" as="sourcePoint" />
            <mxPoint x="440" y="460" as="targetPoint" />
          </mxGeometry>
        </mxCell>
        <mxCell id="ntdUD1XajzB-hL5Z4IIZ-39" value="" style="rhombus;whiteSpace=wrap;html=1;" vertex="1" parent="1">
          <mxGeometry x="335" y="520" width="130" height="80" as="geometry" />
        </mxCell>
        <mxCell id="ntdUD1XajzB-hL5Z4IIZ-23" value="if sensorValue &amp;lt; 30" style="text;html=1;strokeColor=none;fillColor=none;align=center;verticalAlign=middle;whiteSpace=wrap;rounded=0;" vertex="1" parent="1">
          <mxGeometry x="325" y="550" width="160" height="20" as="geometry" />
        </mxCell>
        <mxCell id="ntdUD1XajzB-hL5Z4IIZ-41" value="vexRT[Btn8D] == 1 || SensorValue[bumpSwitch]==1" style="text;html=1;strokeColor=none;fillColor=none;align=center;verticalAlign=middle;whiteSpace=wrap;rounded=0;" vertex="1" parent="1">
          <mxGeometry x="150" y="290" width="250" height="20" as="geometry" />
        </mxCell>
        <mxCell id="ntdUD1XajzB-hL5Z4IIZ-42" value="" style="endArrow=classic;html=1;exitX=1;exitY=0.5;exitDx=0;exitDy=0;" edge="1" parent="1" source="ntdUD1XajzB-hL5Z4IIZ-10">
          <mxGeometry width="50" height="50" relative="1" as="geometry">
            <mxPoint x="390" y="520" as="sourcePoint" />
            <mxPoint x="540" y="450" as="targetPoint" />
          </mxGeometry>
        </mxCell>
      </root>
    </mxGraphModel>
  </diagram>
</mxfile>
